<svg width="130" height="65" viewBox="0 0 130 65" fill="none" xmlns="http://www.w3.org/2000/svg">
<g clip-path="url(#clip0_2037_2)">
<path d="M14.0706 9.10552L14.0706 18.0867L3.40656 18.0867C2.50394 18.089 1.63909 18.3911 1.00084 18.9271C0.362584 19.463 0.00278191 20.1892 -8.21729e-06 20.9471L-6.1981e-06 44.044C0.00554336 44.8012 0.366232 45.5261 1.00389 46.0615C1.64155 46.597 2.5048 46.8998 3.40656 46.9045L14.0706 46.9045L14.0706 55.8945C14.0691 57.0892 14.3487 58.2725 14.8934 59.3762C15.438 60.4799 16.237 61.4824 17.2445 62.3261L17.4561 62.486C19.4501 64.0894 22.1008 64.9892 24.8617 65L119.156 65C122.029 64.993 124.783 64.0314 126.815 62.3253C128.846 60.6192 129.992 58.3073 130 55.8945L130 9.10551C130.001 7.91213 129.722 6.73031 129.177 5.62805C128.632 4.52579 127.833 3.52484 126.826 2.6828C125.821 1.83687 124.628 1.16597 123.313 0.708623C121.999 0.251275 120.589 0.0164968 119.167 0.0177708L24.9145 0.017779C22.0411 0.0248102 19.2878 0.986399 17.256 2.69249C15.2242 4.39858 14.079 6.71052 14.0706 9.12329L14.0706 9.10552ZM20.4183 55.8945L20.4183 9.10552C20.4238 8.11507 20.8949 7.16652 21.729 6.46616C22.563 5.7658 23.6927 5.37028 24.8722 5.3656L119.156 5.3656C119.746 5.36271 120.33 5.45864 120.875 5.64779C121.42 5.83694 121.915 6.11549 122.33 6.46714C122.746 6.81708 123.075 7.2328 123.298 7.69024C123.522 8.14768 123.635 8.63778 123.631 9.13216L123.631 55.8945C123.634 56.3895 123.52 56.88 123.297 57.338C123.073 57.7959 122.744 58.2123 122.328 58.5631C121.912 58.9139 121.418 59.1923 120.874 59.3822C120.329 59.5722 119.746 59.67 119.156 59.67L24.9145 59.67C23.7925 59.671 22.7116 59.3155 21.8888 58.675L21.7725 58.5684C21.3546 58.2192 21.0235 57.8038 20.7983 57.3463C20.5731 56.8889 20.4583 56.3984 20.4606 55.9034L20.4183 55.8945Z" fill="white"/>
<path fill-rule="evenodd" clip-rule="evenodd" d="M83.6409 11.202L59.4034 11.202L59.4034 53.9934L83.6409 53.9934L83.6409 11.202Z" fill="white"/>
<path fill-rule="evenodd" clip-rule="evenodd" d="M91.8611 11.202L91.8611 53.9934L113.887 53.9934C114.617 53.9865 115.315 53.74 115.831 53.3067C116.347 52.8734 116.64 52.2876 116.649 51.6749L116.649 13.4761C116.646 12.8628 116.354 12.2753 115.836 11.8424C115.319 11.4095 114.618 11.1665 113.887 11.1665L91.8611 11.202Z" fill="white"/>
<path fill-rule="evenodd" clip-rule="evenodd" d="M51.4478 11.202L29.9504 11.202C29.2234 11.2089 28.5285 11.4545 28.0145 11.8861C27.5004 12.3178 27.208 12.9013 27.1997 13.5117L27.1997 51.6749C27.2132 52.2847 27.507 52.8666 28.0197 53.2987C28.5323 53.7309 29.2241 53.9798 29.9504 53.9934L51.4478 53.9934L51.4478 11.202Z" fill="white"/>
</g>
<defs>
<clipPath id="clip0_2037_2">
<rect width="130" height="65" fill="white" transform="translate(130 65) rotate(180)"/>
</clipPath>
</defs>
</svg>
