<svg xmlns="http://www.w3.org/2000/svg" viewBox="0 0 48 48" width="48" height="48">
  <defs>
    <linearGradient id="bg" x1="0" y1="0" x2="0" y2="1">
      <stop offset="0%" stop-color="#0a0e2a"/>
      <stop offset="100%" stop-color="#0d1b3e"/>
    </linearGradient>
    <clipPath id="r">
      <rect width="48" height="48" rx="10"/>
    </clipPath>
  </defs>
  <rect width="48" height="48" rx="10" fill="url(#bg)"/>
  <g clip-path="url(#r)">
    <!-- Wave 1: phase=0, amp=7.2, freq=2.0, #1a3a6e @ 50% -->
    <path d="M0 48 L0 26.4 4 28.0 8 29.6 12 31.1 16 32.5 20 33.7 24 34.8 28 35.8 32 36.5 36 37.0 40 37.3 44 37.3 48 37.2 L48 48 Z"
      fill="#1a3a6e" opacity="0.5"/>
    <!-- Wave 2: phase=1.5, amp=5.76, freq=1.8, #102850 @ 60% -->
    <path d="M0 48 L0 39.2 8 39.0 16 38.3 24 37.0 32 35.3 40 33.4 48 31.3 L48 48 Z"
      fill="#102850" opacity="0.6"/>
  </g>
</svg>
